<svg xmlns="http://www.w3.org/2000/svg" viewBox="0 0 64 80" x="0px" y="0px"><g><path d="M35,2H29a3,3,0,0,0-3,3V46H25a1,1,0,0,0-1,1v4a1,1,0,0,0,1,1h1v9a1,1,0,0,0,1,1H37a1,1,0,0,0,1-1V52h1a1,1,0,0,0,1-1V47a1,1,0,0,0-1-1H38V5A3,3,0,0,0,35,2ZM28,5a1,1,0,0,1,1-1h6a1,1,0,0,1,1,1V46H28Zm8,55H28V52h8Zm2-10H26V48H38Z"/><path d="M7.992,41.909l-.975.147a1,1,0,0,0-.84,1.138l.6,3.955A1,1,0,0,0,7.762,48a.968.968,0,0,0,.151-.011l1-.151L11.1,61.162a1,1,0,0,0,.986.838.964.964,0,0,0,.15-.011L22.121,60.5a1,1,0,0,0,.837-1.15l-2.179-13.3.977-.148a1,1,0,0,0,.839-1.138L22,40.8a1,1,0,0,0-1.139-.839l-1,.151L13.989,4.552a3,3,0,0,0-3.415-2.518l-5.932.9A3.007,3.007,0,0,0,2.125,6.358Zm12.829,16.76-7.91,1.2L10.892,47.539l7.91-1.2ZM8.6,45.862l-.3-1.978.013,0h0l11.852-1.79.3,1.977ZM4.285,5.3a.992.992,0,0,1,.655-.395l5.933-.9A.957.957,0,0,1,11.023,4a1,1,0,0,1,.99.864l5.866,35.551L9.97,41.61,4.1,6.046A.991.991,0,0,1,4.285,5.3Z"/><circle cx="32" cy="56" r="2"/><rect x="30" y="6" width="2" height="2"/><rect x="30" y="10" width="2" height="2"/><path d="M16,56a3,3,0,1,0-3-3A3,3,0,0,0,16,56Zm0-4a1,1,0,1,1-1,1A1,1,0,0,1,16,52Z"/><path d="M49.984,4.539,44.113,40.116l-1-.151a1.018,1.018,0,0,0-.743.184,1,1,0,0,0-.4.655l-.6,3.955a1,1,0,0,0,.839,1.138l.977.148-2.179,13.3a1,1,0,0,0,.838,1.15l9.887,1.494a.968.968,0,0,0,.151.011,1,1,0,0,0,.986-.838l2.182-13.324,1,.151a.968.968,0,0,0,.151.011,1,1,0,0,0,.987-.851l.6-3.955a1,1,0,0,0-.839-1.138l-.976-.147L61.848,6.345A3,3,0,0,0,59.33,2.93l-5.933-.9A3,3,0,0,0,49.984,4.539Zm1.077,55.325-7.911-1.2,2.019-12.325,7.911,1.2Zm4.606-15.98-.3,1.978L43.5,44.069l.3-1.977,11.853,1.79h0ZM53.1,4.012l5.933.9a1,1,0,0,1,.841,1.125L54,41.61l-7.91-1.2L51.96,4.851A1,1,0,0,1,53.1,4.012Z"/><path d="M45,53a2.971,2.971,0,1,0,2.971-2.971A2.975,2.975,0,0,0,45,53Zm2.971-.971A.971.971,0,1,1,47,53,.971.971,0,0,1,47.971,52.029Z"/><rect x="10.5" y="32.95" width="2" height="5.099" transform="translate(-6.739 2.945) rotate(-11.31)"/><rect x="53.95" y="10.5" width="5.099" height="2" transform="translate(34.133 64.643) rotate(-78.679)"/><rect x="19" y="9" width="4" height="2"/><rect x="20.5" y="2.379" width="2" height="4.243" transform="translate(3.115 16.521) rotate(-45)"/><rect x="19.379" y="14.5" width="4.243" height="2" transform="translate(-4.663 19.743) rotate(-45)"/><rect x="41" y="9" width="4" height="2"/><rect x="40.379" y="3.5" width="4.243" height="2" transform="translate(9.266 31.37) rotate(-45)"/><rect x="41.5" y="13.379" width="2" height="4.243" transform="translate(1.488 34.592) rotate(-45)"/></g><text x="0" y="79" fill="#000000" font-size="5px" font-weight="bold" font-family="'Helvetica Neue', Helvetica, Arial-Unicode, Arial, Sans-serif">Created by Smalllike</text><text x="0" y="84" fill="#000000" font-size="5px" font-weight="bold" font-family="'Helvetica Neue', Helvetica, Arial-Unicode, Arial, Sans-serif">from the Noun Project</text></svg>