<?xml version="1.0" encoding="iso-8859-1"?>
<!-- Generator: Adobe Illustrator 19.0.0, SVG Export Plug-In . SVG Version: 6.00 Build 0)  -->
<svg version="1.1" id="Capa_1" xmlns="http://www.w3.org/2000/svg" xmlns:xlink="http://www.w3.org/1999/xlink" x="0px" y="0px"
	 viewBox="0 0 499.312 499.312" style="enable-background:new 0 0 499.312 499.312;" xml:space="preserve">
<g>
	<g>
		<path d="M90.732,336c-18.4,0-33.376,14.968-33.376,33.376c0,8.064,3.272,15.96,8.968,21.656l11.312-11.312
			c-2.72-2.72-4.28-6.496-4.28-10.344c0-9.576,7.792-17.376,17.376-17.376c3.848,0,7.624,1.56,10.344,4.28l11.312-11.312
			C106.692,339.264,98.796,336,90.732,336z"/>
	</g>
</g>
<g>
	<g>
		<path d="M170.724,304h-2.744c-5.016,0-9.872,0.784-14.632,1.928v-7.48c19.304-9.2,32-28.72,32-50.44
			c0-18.024-8.84-34.864-23.288-45.32c42.096-13.832,71.296-53.072,71.296-98.688c0-57.344-46.656-104-104-104s-104,46.656-104,104
			c0,45.6,29.184,84.832,71.264,98.672C82.316,213.024,73.356,229.744,73.356,248c0,21.72,12.696,41.24,32,50.44v7.48
			c-4.752-1.136-9.616-1.92-14.632-1.92H87.98c-34.528,0-62.624,28.096-62.624,62.624c0,18.496,7.2,35.888,20.288,48.968
			l83.712,83.72l83.712-83.72c13.088-13.08,20.288-30.464,20.288-48.968C233.356,332.096,205.26,304,170.724,304z M41.356,104
			c0-48.52,39.48-88,88-88s88,39.48,88,88c0,39.92-26.408,74.096-64,84.64v-16.744c28.552-10.056,48-37.136,48-67.904
			c0-39.704-32.304-72-72-72s-72,32.296-72,72c0,30.76,19.448,57.84,48,67.904v16.744C67.764,178.096,41.356,143.92,41.356,104z
			 M105.356,144v10.528c-19.232-9.12-32-28.584-32-50.528c0-30.872,25.12-56,56-56s56,25.128,56,56
			c0,21.944-12.768,41.408-32,50.528V144H105.356z M137.356,160v48h-16v-48H137.356z M89.356,248c0-12.792,6.128-24.552,16-31.976
			V224h48v-7.968c9.96,7.504,16,19.344,16,31.968c0,12.792-6.128,24.552-16,31.976V256h-48v23.976
			C95.484,272.552,89.356,260.792,89.356,248z M137.42,312c-2.8,1.568-5.512,3.312-8.064,5.32c-2.552-2.008-5.264-3.752-8.064-5.32
			h0.064v-40h16v40H137.42z M201.756,404.28l-72.4,72.408l-72.4-72.408c-10.064-10.056-15.6-23.432-15.6-37.656
			c0-25.712,20.92-46.624,46.632-46.624h2.744c12.456,0,24.168,4.848,32.976,13.656l5.648,5.656l5.656-5.656
			c8.808-8.808,20.52-13.656,32.976-13.656h2.744c25.704,0,46.624,20.912,46.624,46.624
			C217.356,380.848,211.82,394.224,201.756,404.28z"/>
	</g>
</g>
<g>
	<g>
		<path d="M473.956,365.672l-71.976-11l-15.56-33.152c4.432-6.024,6.936-13.216,6.936-20.832v-2.248c19.304-9.2,32-28.72,32-50.44
			c0-18.024-8.84-34.856-23.28-45.32c42.088-13.832,71.28-53.072,71.28-98.68c0-57.344-46.656-104-104-104s-104,46.656-104,104
			c0,45.6,29.184,84.832,71.264,98.672c-14.304,10.352-23.264,27.072-23.264,45.328c0,21.72,12.696,41.24,32,50.44v2.248
			c0,7.616,2.504,14.808,6.936,20.832l-15.56,33.152l-71.976,11l52.048,53.344l-12.384,75.952l64.936-35.888l64.936,35.888
			l-12.384-75.952L473.956,365.672z M281.356,104c0-48.52,39.48-88,88-88c48.52,0,88,39.48,88,88c0,39.92-26.408,74.096-64,84.64
			v-16.904c10.376-3.672,19.872-9.576,27.624-17.552l-11.472-11.16c-4.68,4.808-10.184,8.6-16.16,11.44V144h-48v10.528
			c-19.232-9.12-32-28.584-32-50.528c0-30.872,25.12-56,56-56s56,25.128,56,56c0,10.144-2.736,20.072-7.912,28.712l13.728,8.216
			c6.672-11.12,10.192-23.888,10.192-36.928c0-39.704-32.304-72-72-72s-72,32.296-72,72c0,30.76,19.448,57.84,48,67.904v16.744
			C307.764,178.096,281.356,143.92,281.356,104z M377.356,160v48h-16v-48H377.356z M345.356,256v23.976
			c-9.872-7.424-16-19.184-16-31.976c0-12.792,6.128-24.552,16-31.976V224h48v-7.968c9.96,7.504,16,19.344,16,31.968
			c0,12.792-6.128,24.552-16,31.976V256H345.356z M377.356,272v28.688c0,0.432-0.096,0.84-0.12,1.264l-7.88-16.784l-7.88,16.776
			c-0.024-0.416-0.12-0.824-0.12-1.256V272H377.356z M369.356,440.8l-43.84,24.232l8.384-51.408l-35.952-36.84l49.64-7.576
			l21.768-46.376l21.768,46.376l49.64,7.576l-35.952,36.84l8.384,51.408L369.356,440.8z"/>
	</g>
</g>
<g>
	<g>
		<rect x="337.356" y="384" width="16" height="16"/>
	</g>
</g>
<g>
	<g>
		<rect x="145.356" y="408" width="16" height="16"/>
	</g>
</g>
<g>
	<g>
		<rect x="161.356" y="336" width="16" height="16"/>
	</g>
</g>
<g>
</g>
<g>
</g>
<g>
</g>
<g>
</g>
<g>
</g>
<g>
</g>
<g>
</g>
<g>
</g>
<g>
</g>
<g>
</g>
<g>
</g>
<g>
</g>
<g>
</g>
<g>
</g>
<g>
</g>
</svg>
