<?xml version="1.0" encoding="UTF-8"?>
<svg xmlns="http://www.w3.org/2000/svg" viewBox="0 0 64 64" width="512" height="512"><g id="Outline"><path d="M61,54a1,1,0,0,0,0-2H57V37a1,1,0,0,0-1-1H49V34.166a2.84,2.84,0,0,1,4.781-1.212,1,1,0,0,0,1.681-.971,2.848,2.848,0,0,1,3.521-3.522,1,1,0,0,0,.97-1.68,2.85,2.85,0,0,1,1.29-4.811,1,1,0,0,0,0-1.94,2.85,2.85,0,0,1-1.29-4.811,1,1,0,1,0-1.391-1.438A4.869,4.869,0,0,0,58.826,21a4.9,4.9,0,0,0-1.45,5.413,4.9,4.9,0,0,0-3.963,3.963A4.9,4.9,0,0,0,48,31.827a4.9,4.9,0,0,0-5.413-1.451,4.9,4.9,0,0,0-3.963-3.963A4.9,4.9,0,0,0,37.174,21a4.9,4.9,0,0,0,1.45-5.413,4.9,4.9,0,0,0,3.963-3.963A4.9,4.9,0,0,0,48,10.173a4.9,4.9,0,0,0,5.413,1.451,4.814,4.814,0,0,0,1.359,2.6,1,1,0,1,0,1.414-1.414,2.813,2.813,0,0,1-.724-2.8,1,1,0,0,0-1.681-.971A2.849,2.849,0,0,1,48.97,7.757a1,1,0,0,0-1.94,0,2.849,2.849,0,0,1-4.811,1.289A1,1,0,0,0,41,8.876V5a1,1,0,0,0-1-1H24a1,1,0,0,0-1,1v6a1,1,0,0,0,2,0V6h3v5a1,1,0,0,0,1,1h6a1,1,0,0,0,1-1V6h3v7.365a2.809,2.809,0,0,1-1.984.174,1,1,0,0,0-.97,1.68A2.839,2.839,0,0,1,34.832,20H25V15a1,1,0,0,0-2,0v5H16a1,1,0,0,0-1,1V36H8a1,1,0,0,0-1,1V49a1,1,0,0,0,2,0V38h3v5a1,1,0,0,0,1,1h6a1,1,0,0,0,1-1V38h3V52H3a1,1,0,0,0-1,1v4a1,1,0,0,0,1,1H5v3a1,1,0,0,0,1,1h4a1,1,0,0,0,1-1V58H53v3a1,1,0,0,0,1,1h4a1,1,0,0,0,1-1V58h2a1,1,0,0,0,0-2H4V54ZM34,10H30V6h4ZM55,52H41V38h3v5a1,1,0,0,0,1,1h6a1,1,0,0,0,1-1V41a1,1,0,0,0-2,0v1H46V38h9ZM36.817,24a2.811,2.811,0,0,1-.771,2.784,1,1,0,0,0,.97,1.68,2.849,2.849,0,0,1,3.522,3.522,1,1,0,0,0,1.681.971A2.84,2.84,0,0,1,47,34.166V36H33V22h1.832A2.8,2.8,0,0,1,36.817,24ZM30,38h4v4H30ZM26,22v4H22V22ZM18,42H14V38h4Zm-1-6V22h3v5a1,1,0,0,0,1,1h6a1,1,0,0,0,1-1V22h3V36Zm8,2h3v5a1,1,0,0,0,1,1h6a1,1,0,0,0,1-1V38h3V52H25ZM57,58v2H55V58ZM9,58v2H7V58Z"/><path d="M44.193,28.038a8,8,0,1,0-3.23-3.231,1,1,0,0,0,1.758-.953,6,6,0,1,1,2.425,2.425,1,1,0,0,0-.953,1.759Z"/><path d="M46.293,23.707a1,1,0,0,0,1.414,0l4-4a1,1,0,0,0-1.414-1.414L47,21.586l-1.293-1.293a1,1,0,0,0-1.414,1.414Z"/></g></svg>
