<?xml version="1.0" encoding="iso-8859-1"?>
<!-- Generator: Adobe Illustrator 19.0.0, SVG Export Plug-In . SVG Version: 6.00 Build 0)  -->
<svg version="1.1" id="Layer_1" xmlns="http://www.w3.org/2000/svg" xmlns:xlink="http://www.w3.org/1999/xlink" x="0px" y="0px"
	 viewBox="0 0 512 512" style="enable-background:new 0 0 512 512;" xml:space="preserve">
<g>
	<g>
		<path d="M282.664,192l-48.906,85.594l-25.766-42.93l-64,106.664h53.344h74.656h96L282.664,192z M209.523,320H181.68l26.312-43.875
			l13.625,22.703L209.523,320z M234.086,320l48.578-85.008L331.227,320H234.086z"/>
	</g>
</g>
<g>
	<g>
		<path d="M415.992,85.328h-21.328V64h-21.328V0h-21.344v64h-21.328v21.328H181.336V64h-21.344V0h-21.328v64h-21.328v21.328H95.992
			H74.664v21.336v383.992V512h21.328h320h21.344v-21.344V106.664V85.328H415.992z M351.992,85.328h21.344v21.336h-21.344V85.328z
			 M138.664,85.328h21.328v21.336h-21.328V85.328z M415.992,490.656h-320V106.664h21.344V128h64v-21.336h149.328V128h64v-21.336
			h21.328V490.656z"/>
	</g>
</g>
<g>
	<g>
		<path d="M298.664,426.656h-85.328c-5.891,0-10.672,4.781-10.672,10.672S207.445,448,213.336,448h85.328
			c5.891,0,10.672-4.781,10.672-10.672S304.555,426.656,298.664,426.656z"/>
	</g>
</g>
<g>
	<g>
		<path d="M341.336,384H170.664c-5.891,0-10.672,4.781-10.672,10.656c0,5.906,4.781,10.672,10.672,10.672h170.672
			c5.891,0,10.656-4.766,10.656-10.672C351.992,388.781,347.227,384,341.336,384z"/>
	</g>
</g>
<g>
</g>
<g>
</g>
<g>
</g>
<g>
</g>
<g>
</g>
<g>
</g>
<g>
</g>
<g>
</g>
<g>
</g>
<g>
</g>
<g>
</g>
<g>
</g>
<g>
</g>
<g>
</g>
<g>
</g>
</svg>
