<svg id="Capa_1" enable-background="new 0 0 512 512" height="512" viewBox="0 0 512 512" width="512" xmlns="http://www.w3.org/2000/svg"><g><path d="m276 372.641v109.359c0 11.046-8.954 20-20 20-11.046 0-20-8.954-20-20v-109.359z" fill="#b68985"/><path d="m262.216 10h-12.432c-95.667 0-173.221 77.554-173.221 173.221v18.014c0 38.402 12.505 73.878 33.652 102.598 32.571-45.299 85.733-74.799 145.785-74.799 60.052 0 113.214 29.5 145.785 74.799 21.148-28.72 33.652-64.196 33.652-102.598v-18.014c0-95.667-77.554-173.221-173.221-173.221z" fill="#ec9eb0"/><path d="m323.691 114.269-12.125-8.107 5.044-13.686c-9.677-5.072-21.31-6.392-32.522-2.749-.014.005-.028.009-.042.014-1.891.617-3.799-.766-3.797-2.755 0-.016 0-.032 0-.048 0-11.789-4.85-22.445-12.664-30.081l-11.457 9.026-11.457-9.026c-7.814 7.636-12.664 18.292-12.664 30.081v.048c.002 1.989-1.907 3.372-3.797 2.755-.014-.005-.028-.009-.042-.014-11.212-3.643-22.845-2.323-32.522 2.749l5.044 13.686-12.125 8.107c4.848 9.791 13.483 17.697 24.695 21.34l.045.015c1.892.612 2.618 2.855 1.447 4.463-.009.012-.017.024-.026.036-6.929 9.537-9.269 21.009-7.435 31.78l14.574-.568 3.964 14.036c10.81-1.585 20.998-7.355 27.927-16.892.009-.012.017-.024.026-.036 1.167-1.61 3.526-1.61 4.694 0 .009.012.017.024.026.036 6.929 9.537 17.117 15.307 27.927 16.892l3.964-14.036 14.574.568c1.833-10.771-.506-22.243-7.435-31.78-.009-.012-.017-.024-.026-.036-1.171-1.607-.445-3.85 1.447-4.463.015-.005.03-.01.045-.015 11.21-3.643 19.845-11.548 24.693-21.34z" fill="#fff"/><g><path d="m404.886 68.254c-25.761-31.93-61.85-54.529-101.618-63.635-5.387-1.237-10.747 2.132-11.979 7.516-1.233 5.383 2.132 10.747 7.516 11.979 35.414 8.109 67.56 28.245 90.516 56.698 23.291 28.868 36.117 65.238 36.117 102.409v18.014c0 31.351-8.893 60.66-24.277 85.553-15.897-18.918-35.478-34.747-57.314-46.196-26.9-14.104-57.277-21.558-87.846-21.558s-60.946 7.455-87.846 21.558c-21.836 11.449-41.417 27.278-57.315 46.196-15.384-24.893-24.277-54.202-24.277-85.553v-18.014c0-37.253 12.877-73.686 36.26-102.586 23.051-28.49 55.309-48.6 90.831-56.625 5.387-1.217 8.768-6.571 7.551-11.958s-6.57-8.767-11.958-7.551c-39.89 9.012-76.104 31.582-101.972 63.553-26.253 32.448-40.711 73.349-40.711 115.166v18.014c0 92.969 69.604 169.983 159.437 181.679v99.087c0 16.542 13.458 30 30 30s30-13.458 30-30v-99.086c89.833-11.696 159.437-88.71 159.437-181.679v-18.014c-.001-41.725-14.402-82.555-40.552-114.967zm-54.443 199.609-77.782 88.626 36.907-108.705c14.46 4.836 28.217 11.59 40.875 20.079zm-60.223-25.302-34.22 100.79-34.22-100.79c11.166-2.316 22.625-3.526 34.22-3.526s23.054 1.21 34.22 3.526zm-87.788 5.223 36.907 108.705-77.782-88.626c12.658-8.489 26.416-15.243 40.875-20.079zm-79.587 55.929c6.848-8.685 14.468-16.626 22.747-23.722l71.185 81.11c-37.649-7.762-70.595-28.536-93.932-57.388zm143.155 178.287c0 5.514-4.486 10-10 10s-10-4.486-10-10v-97.591c1.259.026 2.519.048 3.784.048h6.141c.025 0 .05.003.075.003h.001s0 0 .001 0c.025 0 .05-.003.075-.003h6.14c1.265 0 2.525-.022 3.784-.048v97.591zm29.224-120.899 71.185-81.109c8.278 7.096 15.899 15.036 22.747 23.721-23.338 28.852-56.284 49.625-93.932 57.388z"/><g><path d="m329.25 105.957-5.576-3.729 2.319-6.294c1.716-4.657-.212-9.926-4.601-12.242-9.935-5.244-20.997-7.11-31.865-5.487-1.808-10.788-6.961-20.69-14.953-28.5-3.593-3.51-9.232-3.811-13.177-.703l-5.27 4.151-5.27-4.151c-3.946-3.109-9.585-2.806-13.177.703-7.985 7.803-13.136 17.694-14.948 28.5-10.871-1.625-21.936.242-31.872 5.487-4.388 2.317-6.316 7.585-4.6 12.241l2.32 6.294-5.576 3.729c-4.125 2.758-5.662 8.153-3.474 12.606 4.95 10.073 12.794 18.081 22.557 23.167-4.88 9.791-6.532 20.832-4.657 31.85.843 4.952 5.242 8.526 10.248 8.314l6.703-.261 1.823 6.455c1.365 4.833 6.1 7.904 11.074 7.176 11.057-1.621 21.045-6.603 28.849-14.268 7.248 7.12 17.011 11.97 27.225 13.924 3.005.575 6.178.122 8.719-1.583 1.881-1.263 3.364-3.07 3.979-5.249l1.823-6.455 6.703.261c4.995.2 9.405-3.362 10.248-8.314 1.876-11.025.222-22.072-4.652-31.848 9.746-5.077 17.598-13.088 22.552-23.169 2.188-4.452.65-9.847-3.474-12.605zm-33.379 20.153c-3.927 1.271-7.031 4.367-8.302 8.281-1.272 3.916-.58 8.246 1.852 11.584.006.009.013.017.019.026 3.375 4.646 5.4 9.971 5.967 15.522l-4.626-.18c-4.602-.194-8.757 2.827-10.013 7.274l-1.258 4.456c-5.104-2.254-9.543-5.826-12.918-10.471-.013-.018-.026-.036-.04-.054-.003-.004-.006-.008-.009-.012-2.425-3.319-6.314-5.298-10.414-5.298-4.102 0-7.993 1.981-10.417 5.303-.015.021-.03.042-.045.062-3.375 4.646-7.814 8.217-12.918 10.471l-1.258-4.456c-1.256-4.447-5.398-7.476-10.013-7.274l-4.626.18c.567-5.551 2.591-10.876 5.967-15.522.005-.008.011-.015.016-.023.001-.001.002-.003.003-.004 2.431-3.338 3.123-7.669 1.851-11.584-1.271-3.913-4.375-7.008-8.336-8.291-5.461-1.774-10.229-4.893-13.951-9.05l3.849-2.573c3.841-2.569 5.422-7.435 3.825-11.771l-1.601-4.344c5.457-1.175 11.154-.894 16.637.887 3.926 1.28 8.258.602 11.588-1.818 3.329-2.418 5.314-6.326 5.31-10.492 0-5.743 1.493-11.241 4.296-16.065l3.637 2.865c3.63 2.859 8.746 2.859 12.376 0l3.637-2.865c2.804 4.827 4.297 10.334 4.297 16.103-.004 4.127 1.981 8.035 5.31 10.454 3.331 2.419 7.664 3.098 11.547 1.832.015-.005.036-.012.055-.018.006-.002.011-.004.017-.005 5.46-1.775 11.15-2.054 16.606-.878l-1.601 4.345c-1.598 4.336-.017 9.202 3.824 11.771l3.848 2.573c-3.728 4.156-8.505 7.277-13.988 9.059z"/></g><circle cx="256.25" cy="10" r="10"/><circle cx="256.25" cy="124.01" r="10"/></g></g></svg>