<svg id="Outline" height="512" viewBox="0 0 512 512" width="512" xmlns="http://www.w3.org/2000/svg"><path d="m40 472a24.028 24.028 0 0 0 24 24h400a8 8 0 0 0 8-8v-464a8 8 0 0 0 -8-8h-400a24.028 24.028 0 0 0 -24 24zm416 8h-352v-448h352zm-400-440a8.009 8.009 0 0 1 8-8h24v448h-24a8.009 8.009 0 0 1 -8-8z"/><path d="m136 328h288a8 8 0 0 0 8-8v-208a8 8 0 0 0 -8-8h-288a8 8 0 0 0 -8 8v208a8 8 0 0 0 8 8zm8-128h61.333a24.146 24.146 0 0 1 14.4 4.8l50.333 37.749-81.026 69.451h-45.04zm272 112h-202.373l142.593-122.222a24.007 24.007 0 0 1 15.618-5.778h44.162zm0-192v48h-44.162a40.021 40.021 0 0 0 -26.031 9.63l-63.3 54.253-53.174-39.883a40.249 40.249 0 0 0 -24-8h-61.333v-64z"/><path d="m280 200a32 32 0 1 0 -32-32 32.036 32.036 0 0 0 32 32zm0-48a16 16 0 1 1 -16 16 16.019 16.019 0 0 1 16-16z"/><path d="m320 376a8 8 0 0 0 0-16h-80a8 8 0 0 0 0 16z"/><path d="m360 392h-160a8 8 0 0 0 0 16h160a8 8 0 0 0 0-16z"/></svg>