<svg height="512" viewBox="0 0 512 512" width="512" xmlns="http://www.w3.org/2000/svg"><g><path d="m48 64h-8a8 8 0 0 0 0 16h8a8 8 0 0 0 0-16z"/><path d="m80 64h-8a8 8 0 0 0 0 16h8a8 8 0 0 0 0-16z"/><path d="m112 64h-8a8 8 0 0 0 0 16h8a8 8 0 0 0 0-16z"/><circle cx="280" cy="224" r="8"/><path d="m416 280.34v-212.34a28.031 28.031 0 0 0 -28-28h-352a28.031 28.031 0 0 0 -28 28v288a28.031 28.031 0 0 0 28 28h276.34a96 96 0 1 0 103.66-103.66zm-392-212.34a12.01 12.01 0 0 1 12-12h352a12.01 12.01 0 0 1 12 12v20h-376zm12 300a12.01 12.01 0 0 1 -12-12v-252h376v176.34a96.139 96.139 0 0 0 -87.66 87.66zm372 88a80 80 0 1 1 80-80 80.093 80.093 0 0 1 -80 80z"/><path d="m304 192h-8v-28a20.02 20.02 0 0 0 -20-20h-152a20.02 20.02 0 0 0 -20 20v120a20.02 20.02 0 0 0 20 20h152a20.02 20.02 0 0 0 20-20v-28h8a8 8 0 0 0 8-8v-48a8 8 0 0 0 -8-8zm-24 92a4 4 0 0 1 -4 4h-152a4 4 0 0 1 -4-4v-120a4 4 0 0 1 4-4h152a4 4 0 0 1 4 4v28h-40a8 8 0 0 0 -8 8v48a8 8 0 0 0 8 8h40zm16-44h-48v-32h48z"/><path d="m440 368v-16a32 32 0 0 0 -64 0v16a8 8 0 0 0 -8 8v40a8 8 0 0 0 8 8h64a8 8 0 0 0 8-8v-40a8 8 0 0 0 -8-8zm-48-16a16 16 0 0 1 32 0v16h-32zm40 56h-48v-24h48z"/></g></svg>