<?xml version="1.0" encoding="utf-8"?>
<!-- Generator: Adobe Illustrator 25.3.1, SVG Export Plug-In . SVG Version: 6.00 Build 0)  -->
<svg version="1.1" id="Layer_1" xmlns="http://www.w3.org/2000/svg" xmlns:xlink="http://www.w3.org/1999/xlink" x="0px" y="0px"
	 viewBox="0 0 64 64.2" style="enable-background:new 0 0 64 64.2;" xml:space="preserve">
<g>
	<path d="M35.2,0h-6.4c-1.8,0-3.2,1.4-3.2,3.2v43.9h-1.1c-0.6,0-1.1,0.5-1.1,1.1v4.3c0,0.6,0.5,1.1,1.1,1.1h1.1v9.6
		c0,0.6,0.5,1.1,1.1,1.1h10.7c0.6,0,1.1-0.5,1.1-1.1v-9.6h1.1c0.6,0,1.1-0.5,1.1-1.1v-4.3c0-0.6-0.5-1.1-1.1-1.1h-1.1V3.2
		C38.4,1.4,37,0,35.2,0z M27.7,3.2c0-0.6,0.5-1.1,1.1-1.1h6.4c0.6,0,1.1,0.5,1.1,1.1v43.9h-8.6V3.2z M36.3,62.1h-8.6v-8.6h8.6V62.1z
		 M38.4,51.4H25.6v-2.1h12.8V51.4z"/>
	<path d="M6.3,42.7l-1,0.2c-0.6,0.1-1,0.6-0.9,1.2c0,0,0,0,0,0L5,48.3c0.1,0.5,0.5,0.9,1.1,0.9c0.1,0,0.1,0,0.2,0l1.1-0.2l2.3,14.3
		c0.1,0.5,0.5,0.9,1.1,0.9c0.1,0,0.1,0,0.2,0l10.6-1.6c0.6-0.1,1-0.6,0.9-1.2c0,0,0,0,0,0L20,47.1l1-0.2c0.6-0.1,1-0.6,0.9-1.2
		l-0.6-4.2c-0.1-0.6-0.6-1-1.2-0.9c0,0,0,0,0,0L19,40.8L12.7,2.7C12.5,1,10.8-0.2,9.1,0c0,0,0,0,0,0L2.7,1C1,1.3-0.2,2.9,0,4.7
		L6.3,42.7z M20.1,60.7l-8.5,1.3L9.4,48.7l8.5-1.3L20.1,60.7z M7,46.9l-0.3-2.1h0l0,0l12.7-1.9l0.3,2.1L7,46.9z M2.4,3.5
		c0.2-0.2,0.4-0.4,0.7-0.4l6.3-1c0.1,0,0.1,0,0.2,0c0.5,0,1,0.4,1.1,0.9l6.3,38l-8.5,1.3L2.2,4.3C2.1,4.1,2.2,3.8,2.4,3.5z"/>
	<circle cx="32" cy="57.8" r="2.1"/>
	<rect x="29.9" y="4.3" width="2.1" height="2.1"/>
	<rect x="29.9" y="8.6" width="2.1" height="2.1"/>
	<path d="M14.9,57.8c1.8,0,3.2-1.4,3.2-3.2s-1.4-3.2-3.2-3.2s-3.2,1.4-3.2,3.2S13.1,57.8,14.9,57.8z M14.9,53.5
		c0.6,0,1.1,0.5,1.1,1.1s-0.5,1.1-1.1,1.1c-0.6,0-1.1-0.5-1.1-1.1S14.3,53.5,14.9,53.5z"/>
	<path d="M51.3,2.7L45,40.8l-1.1-0.2c-0.3,0-0.6,0-0.8,0.2c-0.2,0.2-0.4,0.4-0.4,0.7L42,45.8c-0.1,0.6,0.3,1.1,0.9,1.2l1,0.2
		l-2.3,14.2c-0.1,0.6,0.3,1.1,0.9,1.2c0,0,0,0,0,0l10.6,1.6c0.1,0,0.1,0,0.2,0c0.5,0,1-0.4,1.1-0.9l2.3-14.3l1.1,0.2
		c0.1,0,0.1,0,0.2,0c0.5,0,1-0.4,1.1-0.9l0.6-4.2c0.1-0.6-0.3-1.1-0.9-1.2l-1-0.2L64,4.7C64.2,2.9,63,1.3,61.3,1c0,0,0,0,0,0l-6.3-1
		C53.2-0.2,51.5,1,51.3,2.7z M52.4,61.9L44,60.6l2.2-13.2l8.5,1.3L52.4,61.9z M57.3,44.8L57,46.9L44.3,45l0.3-2.1L57.3,44.8
		L57.3,44.8L57.3,44.8z M54.6,2.2l6.3,1c0.6,0.1,1,0.6,0.9,1.2l-6.3,38.1l-8.5-1.3l6.3-38.1C53.5,2.5,54,2.1,54.6,2.2
		C54.6,2.2,54.6,2.2,54.6,2.2z"/>
	<path d="M45.9,54.6c0,1.8,1.4,3.2,3.2,3.2c1.8,0,3.2-1.4,3.2-3.2c0-1.8-1.4-3.2-3.2-3.2C47.4,51.4,45.9,52.8,45.9,54.6z M49.1,53.5
		c0.6,0,1,0.5,1,1s-0.5,1-1,1c-0.6,0-1-0.5-1-1C48.1,54,48.5,53.5,49.1,53.5L49.1,53.5z"/>
	<rect x="9" y="33.1" transform="matrix(0.9806 -0.1961 0.1961 0.9806 -6.8366 2.6728)" width="2.1" height="5.5"/>
	<rect x="55.5" y="9.1" transform="matrix(0.1963 -0.9805 0.9805 0.1963 36.8331 65.2822)" width="5.5" height="2.1"/>
	<rect x="18.1" y="7.5" width="4.3" height="2.1"/>
	<rect x="19.7" y="0.4" transform="matrix(0.7071 -0.7071 0.7071 0.7071 4.1912 15.4796)" width="2.1" height="4.5"/>
	<rect x="18.5" y="13.4" transform="matrix(0.7071 -0.7071 0.7071 0.7071 -4.1329 18.9277)" width="4.5" height="2.1"/>
	<rect x="41.7" y="7.5" width="4.3" height="2.1"/>
	<rect x="41" y="1.6" transform="matrix(0.7071 -0.7071 0.7071 0.7071 10.7749 31.3719)" width="4.5" height="2.1"/>
	<rect x="42.2" y="12.2" transform="matrix(0.7071 -0.7071 0.7071 0.7071 2.4497 34.8204)" width="2.1" height="4.5"/>
</g>
</svg>
