<svg height="512" viewBox="0 0 128 128" width="512" xmlns="http://www.w3.org/2000/svg"><g><path d="m118.25 6.957h-110.5a7.759 7.759 0 0 0 -7.75 7.75v98.586a7.759 7.759 0 0 0 7.75 7.75h110.5a9.761 9.761 0 0 0 9.75-9.75v-94.586a9.761 9.761 0 0 0 -9.75-9.75zm-44.913 13.5h41.163v87.086h-41.163zm-69.837 92.836v-98.586a4.255 4.255 0 0 1 4.25-4.25h57.837a4.254 4.254 0 0 1 4.25 4.25v98.586a4.254 4.254 0 0 1 -4.25 4.25h-57.837a4.255 4.255 0 0 1 -4.25-4.25zm121-2a6.257 6.257 0 0 1 -6.25 6.25h-46.185c1.315-1.835 1.342-4.33 1.272-6.5h42.913a1.75 1.75 0 0 0 1.75-1.75v-90.586a1.75 1.75 0 0 0 -1.75-1.75h-42.913c.069-2.174.043-4.662-1.272-6.5h46.185a6.257 6.257 0 0 1 6.25 6.25z"/><path d="m33.875 33.875v-11.168a5.757 5.757 0 0 0 -5.75-5.75h-12.375a5.757 5.757 0 0 0 -5.75 5.75v11.168a5.757 5.757 0 0 0 5.75 5.75h12.375a5.757 5.757 0 0 0 5.75-5.75zm-20.375 0v-11.168a2.253 2.253 0 0 1 2.25-2.25h12.375a2.253 2.253 0 0 1 2.25 2.25v11.168a2.253 2.253 0 0 1 -2.25 2.25h-12.375a2.253 2.253 0 0 1 -2.25-2.25z"/><path d="m47.393 63.765a1.75 1.75 0 0 0 -1.418.724c-.1.135-1.961 2.721-3.94 5.951-1.821-2.98-3.556-5.407-3.949-5.951a1.813 1.813 0 0 0 -2.835 0c-.1.135-1.962 2.721-3.94 5.951-1.821-2.98-3.556-5.407-3.949-5.951a1.814 1.814 0 0 0 -2.836 0c-.894 1.237-8.733 12.224-8.733 17.283a10.131 10.131 0 0 0 15.51 8.6 10.072 10.072 0 0 0 10.724 0 10.136 10.136 0 0 0 15.516-8.6c0-5.059-7.838-16.046-8.732-17.283a1.749 1.749 0 0 0 -1.418-.724zm-28.1 18.007c0-2.544 3.646-8.761 6.651-13.2 3.006 4.44 6.651 10.656 6.651 13.2a6.651 6.651 0 0 1 -13.3 0zm14.755 6.088a10.088 10.088 0 0 0 2.052-6.088c0-2.009-1.238-4.955-2.785-7.853 1.175-2.028 2.434-3.962 3.364-5.341 3.005 4.439 6.645 10.65 6.645 13.194a6.6 6.6 0 0 1 -9.271 6.088zm13.345.563a6.62 6.62 0 0 1 -2.621-.564 10.083 10.083 0 0 0 2.047-6.087c0-2.009-1.238-4.955-2.785-7.853 1.175-2.028 2.434-3.962 3.364-5.34 3 4.44 6.645 10.651 6.645 13.193a6.658 6.658 0 0 1 -6.65 6.651z"/></g></svg>