<?xml version="1.0" encoding="utf-8"?>
<!-- Generator: Adobe Illustrator 25.3.1, SVG Export Plug-In . SVG Version: 6.00 Build 0)  -->
<svg version="1.1" id="Capa_1" xmlns="http://www.w3.org/2000/svg" xmlns:xlink="http://www.w3.org/1999/xlink" x="0px" y="0px"
	 viewBox="0 0 512 512" style="enable-background:new 0 0 512 512;" xml:space="preserve">
<g>
	<g>
		<path d="M404.9,68.3C379.1,36.3,343,13.7,303.3,4.6c-5.4-1.2-10.7,2.1-12,7.5c-1.2,5.4,2.1,10.7,7.5,12
			c35.4,8.1,67.6,28.2,90.5,56.7c23.3,28.9,36.1,65.2,36.1,102.4v18c0,31.4-8.9,60.7-24.3,85.6c-15.9-18.9-35.5-34.7-57.3-46.2
			C316.9,226.5,286.6,219,256,219s-60.9,7.5-87.8,21.6c-21.8,11.4-41.4,27.3-57.3,46.2c-15.4-24.9-24.3-54.2-24.3-85.6v-18
			c0-37.3,12.9-73.7,36.3-102.6C145.9,52.1,178.1,32,213.7,24c5.4-1.2,8.8-6.6,7.6-12s-6.6-8.8-12-7.6c-39.9,9-76.1,31.6-102,63.6
			C81,100.5,66.6,141.4,66.6,183.2v18c0,93,69.6,170,159.4,181.7V482c0,16.5,13.5,30,30,30s30-13.5,30-30v-99.1
			c89.8-11.7,159.4-88.7,159.4-181.7v-18C445.4,141.5,431,100.7,404.9,68.3L404.9,68.3z M350.4,267.9l-77.8,88.6l36.9-108.7
			C324,252.6,337.8,259.4,350.4,267.9L350.4,267.9z M290.2,242.6L256,343.4l-34.2-100.8c11.2-2.3,22.6-3.5,34.2-3.5
			S279.1,240.2,290.2,242.6z M202.4,247.8l36.9,108.7l-77.8-88.6C174.2,259.4,188,252.6,202.4,247.8z M122.8,303.7
			c6.8-8.7,14.5-16.6,22.7-23.7l71.2,81.1C179.1,353.3,146.2,332.6,122.8,303.7L122.8,303.7z M266,482c0,5.5-4.5,10-10,10
			s-10-4.5-10-10v-97.6c1.3,0,2.5,0,3.8,0h6.1c0,0,0.1,0,0.1,0h0c0,0,0,0,0,0c0,0,0,0,0.1,0h6.1c1.3,0,2.5,0,3.8,0L266,482L266,482z
			 M295.2,361.1l71.2-81.1c8.3,7.1,15.9,15,22.7,23.7C365.8,332.6,332.9,353.3,295.2,361.1z"/>
		<circle cx="256.2" cy="10" r="10"/>
	</g>
</g>
</svg>
